<mxfile host="app.diagrams.net" modified="2023-03-29T06:22:39.130Z" agent="5.0 (Windows NT 10.0; Win64; x64) AppleWebKit/537.36 (KHTML, like Gecko) Chrome/111.0.0.0 Safari/537.36" etag="WxtRNUOKK6BZf7E_hBtG" version="21.0.10" type="github">
  <diagram name="第 1 页" id="laVRL4hSzpmNgwb_mQqg">
    <mxGraphModel dx="910" dy="722" grid="1" gridSize="10" guides="1" tooltips="1" connect="1" arrows="1" fold="1" page="1" pageScale="1" pageWidth="827" pageHeight="1169" math="0" shadow="0">
      <root>
        <mxCell id="0" />
        <mxCell id="1" parent="0" />
        <mxCell id="5o4x5xTKd4VsP92acShY-13" style="edgeStyle=orthogonalEdgeStyle;rounded=0;orthogonalLoop=1;jettySize=auto;html=1;endArrow=none;endFill=0;" edge="1" parent="1" source="5o4x5xTKd4VsP92acShY-1" target="5o4x5xTKd4VsP92acShY-5">
          <mxGeometry relative="1" as="geometry" />
        </mxCell>
        <mxCell id="5o4x5xTKd4VsP92acShY-16" style="edgeStyle=orthogonalEdgeStyle;rounded=0;orthogonalLoop=1;jettySize=auto;html=1;endArrow=none;endFill=0;" edge="1" parent="1" source="5o4x5xTKd4VsP92acShY-1" target="5o4x5xTKd4VsP92acShY-4">
          <mxGeometry relative="1" as="geometry" />
        </mxCell>
        <mxCell id="5o4x5xTKd4VsP92acShY-1" value="元素：&amp;lt;html&amp;gt;" style="rounded=0;whiteSpace=wrap;html=1;fontSize=16;" vertex="1" parent="1">
          <mxGeometry x="346" y="40" width="120" height="60" as="geometry" />
        </mxCell>
        <mxCell id="5o4x5xTKd4VsP92acShY-17" style="edgeStyle=orthogonalEdgeStyle;rounded=0;orthogonalLoop=1;jettySize=auto;html=1;endArrow=none;endFill=0;" edge="1" parent="1" source="5o4x5xTKd4VsP92acShY-4" target="5o4x5xTKd4VsP92acShY-6">
          <mxGeometry relative="1" as="geometry" />
        </mxCell>
        <mxCell id="5o4x5xTKd4VsP92acShY-18" style="edgeStyle=orthogonalEdgeStyle;rounded=0;orthogonalLoop=1;jettySize=auto;html=1;exitX=0.5;exitY=1;exitDx=0;exitDy=0;endArrow=none;endFill=0;" edge="1" parent="1" source="5o4x5xTKd4VsP92acShY-4" target="5o4x5xTKd4VsP92acShY-7">
          <mxGeometry relative="1" as="geometry" />
        </mxCell>
        <mxCell id="5o4x5xTKd4VsP92acShY-4" value="元素：&amp;lt;head&amp;gt;" style="rounded=0;whiteSpace=wrap;html=1;fontSize=16;" vertex="1" parent="1">
          <mxGeometry x="186" y="130" width="120" height="60" as="geometry" />
        </mxCell>
        <mxCell id="5o4x5xTKd4VsP92acShY-19" style="edgeStyle=orthogonalEdgeStyle;rounded=0;orthogonalLoop=1;jettySize=auto;html=1;endArrow=none;endFill=0;" edge="1" parent="1" source="5o4x5xTKd4VsP92acShY-5" target="5o4x5xTKd4VsP92acShY-9">
          <mxGeometry relative="1" as="geometry" />
        </mxCell>
        <mxCell id="5o4x5xTKd4VsP92acShY-20" style="edgeStyle=orthogonalEdgeStyle;rounded=0;orthogonalLoop=1;jettySize=auto;html=1;endArrow=none;endFill=0;" edge="1" parent="1" source="5o4x5xTKd4VsP92acShY-5" target="5o4x5xTKd4VsP92acShY-8">
          <mxGeometry relative="1" as="geometry" />
        </mxCell>
        <mxCell id="5o4x5xTKd4VsP92acShY-5" value="元素：&amp;lt;body&amp;gt;" style="rounded=0;whiteSpace=wrap;html=1;fontSize=16;" vertex="1" parent="1">
          <mxGeometry x="496" y="130" width="120" height="60" as="geometry" />
        </mxCell>
        <mxCell id="5o4x5xTKd4VsP92acShY-6" value="元素：&amp;lt;meta&amp;gt;" style="rounded=0;whiteSpace=wrap;html=1;fontSize=16;" vertex="1" parent="1">
          <mxGeometry x="90" y="250" width="120" height="60" as="geometry" />
        </mxCell>
        <mxCell id="5o4x5xTKd4VsP92acShY-24" style="edgeStyle=orthogonalEdgeStyle;rounded=0;orthogonalLoop=1;jettySize=auto;html=1;endArrow=none;endFill=0;" edge="1" parent="1" source="5o4x5xTKd4VsP92acShY-7" target="5o4x5xTKd4VsP92acShY-21">
          <mxGeometry relative="1" as="geometry" />
        </mxCell>
        <mxCell id="5o4x5xTKd4VsP92acShY-7" value="元素：&amp;lt;title&amp;gt;" style="rounded=0;whiteSpace=wrap;html=1;fontSize=16;" vertex="1" parent="1">
          <mxGeometry x="256" y="250" width="120" height="60" as="geometry" />
        </mxCell>
        <mxCell id="5o4x5xTKd4VsP92acShY-25" style="edgeStyle=orthogonalEdgeStyle;rounded=0;orthogonalLoop=1;jettySize=auto;html=1;endArrow=none;endFill=0;" edge="1" parent="1" source="5o4x5xTKd4VsP92acShY-8" target="5o4x5xTKd4VsP92acShY-22">
          <mxGeometry relative="1" as="geometry" />
        </mxCell>
        <mxCell id="5o4x5xTKd4VsP92acShY-8" value="元素：&amp;lt;h1&amp;gt;" style="rounded=0;whiteSpace=wrap;html=1;fontSize=16;" vertex="1" parent="1">
          <mxGeometry x="426" y="250" width="120" height="60" as="geometry" />
        </mxCell>
        <mxCell id="5o4x5xTKd4VsP92acShY-26" style="edgeStyle=orthogonalEdgeStyle;rounded=0;orthogonalLoop=1;jettySize=auto;html=1;endArrow=none;endFill=0;" edge="1" parent="1" source="5o4x5xTKd4VsP92acShY-9" target="5o4x5xTKd4VsP92acShY-23">
          <mxGeometry relative="1" as="geometry" />
        </mxCell>
        <mxCell id="5o4x5xTKd4VsP92acShY-9" value="元素：&amp;lt;div&amp;gt;" style="rounded=0;whiteSpace=wrap;html=1;fontSize=16;" vertex="1" parent="1">
          <mxGeometry x="576" y="250" width="120" height="60" as="geometry" />
        </mxCell>
        <mxCell id="5o4x5xTKd4VsP92acShY-21" value="文本：&lt;br&gt;这是一个HTML" style="rounded=0;whiteSpace=wrap;html=1;fontSize=16;" vertex="1" parent="1">
          <mxGeometry x="256" y="370" width="120" height="60" as="geometry" />
        </mxCell>
        <mxCell id="5o4x5xTKd4VsP92acShY-22" value="文本：&lt;br&gt;一级标题" style="rounded=0;whiteSpace=wrap;html=1;fontSize=16;" vertex="1" parent="1">
          <mxGeometry x="426" y="370" width="120" height="60" as="geometry" />
        </mxCell>
        <mxCell id="5o4x5xTKd4VsP92acShY-23" value="文本：&lt;br&gt;一段文本" style="rounded=0;whiteSpace=wrap;html=1;fontSize=16;" vertex="1" parent="1">
          <mxGeometry x="576" y="370" width="120" height="60" as="geometry" />
        </mxCell>
        <mxCell id="5o4x5xTKd4VsP92acShY-27" value="&lt;div style=&quot;font-size: 16px;&quot;&gt;&lt;div style=&quot;font-size: 16px;&quot;&gt;&amp;lt;html&amp;gt;&lt;/div&gt;&lt;/div&gt;&lt;blockquote style=&quot;margin: 0 0 0 40px; border: none; padding: 0px;&quot;&gt;&lt;div style=&quot;font-size: 16px;&quot;&gt;&lt;div style=&quot;font-size: 16px;&quot;&gt;&lt;span style=&quot;font-size: 16px;&quot;&gt;&amp;lt;head&amp;gt;&lt;/span&gt;&lt;/div&gt;&lt;/div&gt;&lt;/blockquote&gt;&lt;blockquote style=&quot;margin: 0 0 0 40px; border: none; padding: 0px;&quot;&gt;&lt;blockquote style=&quot;margin: 0 0 0 40px; border: none; padding: 0px;&quot;&gt;&lt;div style=&quot;font-size: 16px;&quot;&gt;&lt;div style=&quot;font-size: 16px;&quot;&gt;&lt;span style=&quot;font-size: 16px;&quot;&gt;&amp;lt;title&amp;gt;&lt;/span&gt;&lt;/div&gt;&lt;/div&gt;&lt;/blockquote&gt;&lt;blockquote style=&quot;margin: 0 0 0 40px; border: none; padding: 0px;&quot;&gt;&lt;div style=&quot;font-size: 16px;&quot;&gt;&lt;div style=&quot;font-size: 16px;&quot;&gt;&lt;span style=&quot;font-size: 16px;&quot;&gt;&lt;span style=&quot;white-space: pre;&quot;&gt;	&lt;/span&gt;iPhone 13&lt;/span&gt;&lt;/div&gt;&lt;/div&gt;&lt;/blockquote&gt;&lt;blockquote style=&quot;margin: 0 0 0 40px; border: none; padding: 0px;&quot;&gt;&lt;div style=&quot;font-size: 16px;&quot;&gt;&lt;div style=&quot;font-size: 16px;&quot;&gt;&lt;span style=&quot;font-size: 16px;&quot;&gt;&amp;lt;/title&amp;gt;&lt;/span&gt;&lt;/div&gt;&lt;/div&gt;&lt;/blockquote&gt;&lt;/blockquote&gt;&lt;blockquote style=&quot;margin: 0 0 0 40px; border: none; padding: 0px;&quot;&gt;&lt;div style=&quot;font-size: 16px;&quot;&gt;&lt;div style=&quot;font-size: 16px;&quot;&gt;&lt;span style=&quot;font-size: 16px;&quot;&gt;&amp;lt;/head&amp;gt;&lt;/span&gt;&lt;/div&gt;&lt;/div&gt;&lt;div style=&quot;font-size: 16px;&quot;&gt;&lt;div style=&quot;font-size: 16px;&quot;&gt;&lt;span style=&quot;font-size: 16px;&quot;&gt;&amp;lt;body&amp;gt;&lt;/span&gt;&lt;/div&gt;&lt;/div&gt;&lt;/blockquote&gt;&lt;blockquote style=&quot;margin: 0 0 0 40px; border: none; padding: 0px;&quot;&gt;&lt;blockquote style=&quot;margin: 0 0 0 40px; border: none; padding: 0px;&quot;&gt;&lt;div style=&quot;font-size: 16px;&quot;&gt;&lt;div style=&quot;font-size: 16px;&quot;&gt;&lt;span style=&quot;font-size: 16px;&quot;&gt;&amp;lt;li&amp;gt;&lt;/span&gt;&lt;/div&gt;&lt;/div&gt;&lt;/blockquote&gt;&lt;/blockquote&gt;&lt;blockquote style=&quot;margin: 0 0 0 40px; border: none; padding: 0px;&quot;&gt;&lt;blockquote style=&quot;margin: 0 0 0 40px; border: none; padding: 0px;&quot;&gt;&lt;blockquote style=&quot;margin: 0 0 0 40px; border: none; padding: 0px;&quot;&gt;&lt;div style=&quot;font-size: 16px;&quot;&gt;&lt;div style=&quot;font-size: 16px;&quot;&gt;&lt;span style=&quot;font-size: 16px;&quot;&gt;&amp;lt;span&amp;gt;Price:&amp;lt;/span&amp;gt;&lt;/span&gt;&lt;/div&gt;&lt;/div&gt;&lt;/blockquote&gt;&lt;/blockquote&gt;&lt;blockquote style=&quot;margin: 0 0 0 40px; border: none; padding: 0px;&quot;&gt;&lt;blockquote style=&quot;margin: 0 0 0 40px; border: none; padding: 0px;&quot;&gt;&lt;div style=&quot;font-size: 16px;&quot;&gt;&lt;div style=&quot;font-size: 16px;&quot;&gt;&lt;span style=&quot;font-size: 16px;&quot;&gt;&amp;lt;span&amp;gt;$ 799&amp;lt;/span&amp;gt;&lt;/span&gt;&lt;/div&gt;&lt;/div&gt;&lt;/blockquote&gt;&lt;/blockquote&gt;&lt;/blockquote&gt;&lt;blockquote style=&quot;margin: 0 0 0 40px; border: none; padding: 0px;&quot;&gt;&lt;blockquote style=&quot;margin: 0 0 0 40px; border: none; padding: 0px;&quot;&gt;&lt;div style=&quot;font-size: 16px;&quot;&gt;&lt;div style=&quot;font-size: 16px;&quot;&gt;&lt;span style=&quot;font-size: 16px;&quot;&gt;&amp;lt;/li&amp;gt;&lt;/span&gt;&lt;/div&gt;&lt;/div&gt;&lt;/blockquote&gt;&lt;blockquote style=&quot;margin: 0 0 0 40px; border: none; padding: 0px;&quot;&gt;&lt;div style=&quot;font-size: 16px;&quot;&gt;&lt;div style=&quot;font-size: 16px;&quot;&gt;&lt;span style=&quot;font-size: 16px;&quot;&gt;&amp;lt;li&amp;gt;&lt;/span&gt;&lt;/div&gt;&lt;/div&gt;&lt;/blockquote&gt;&lt;/blockquote&gt;&lt;blockquote style=&quot;margin: 0 0 0 40px; border: none; padding: 0px;&quot;&gt;&lt;blockquote style=&quot;margin: 0 0 0 40px; border: none; padding: 0px;&quot;&gt;&lt;blockquote style=&quot;margin: 0 0 0 40px; border: none; padding: 0px;&quot;&gt;&lt;div style=&quot;font-size: 16px;&quot;&gt;&lt;div style=&quot;font-size: 16px;&quot;&gt;&lt;span style=&quot;font-size: 16px;&quot;&gt;&amp;lt;span&amp;gt;Storage:&amp;lt;/span&amp;gt;&lt;/span&gt;&lt;/div&gt;&lt;/div&gt;&lt;/blockquote&gt;&lt;/blockquote&gt;&lt;blockquote style=&quot;margin: 0 0 0 40px; border: none; padding: 0px;&quot;&gt;&lt;blockquote style=&quot;margin: 0 0 0 40px; border: none; padding: 0px;&quot;&gt;&lt;div style=&quot;font-size: 16px;&quot;&gt;&lt;div style=&quot;font-size: 16px;&quot;&gt;&lt;span style=&quot;font-size: 16px;&quot;&gt;&amp;lt;span&amp;gt;128 GB&amp;lt;/span&amp;gt;&lt;/span&gt;&lt;/div&gt;&lt;/div&gt;&lt;/blockquote&gt;&lt;/blockquote&gt;&lt;/blockquote&gt;&lt;blockquote style=&quot;margin: 0 0 0 40px; border: none; padding: 0px;&quot;&gt;&lt;blockquote style=&quot;margin: 0 0 0 40px; border: none; padding: 0px;&quot;&gt;&lt;div style=&quot;font-size: 16px;&quot;&gt;&lt;div style=&quot;font-size: 16px;&quot;&gt;&lt;span style=&quot;font-size: 16px;&quot;&gt;&amp;lt;/li&amp;gt;&lt;/span&gt;&lt;/div&gt;&lt;/div&gt;&lt;/blockquote&gt;&lt;/blockquote&gt;&lt;blockquote style=&quot;margin: 0 0 0 40px; border: none; padding: 0px;&quot;&gt;&lt;div style=&quot;font-size: 16px;&quot;&gt;&lt;div style=&quot;font-size: 16px;&quot;&gt;&lt;span style=&quot;font-size: 16px;&quot;&gt;&amp;lt;body&amp;gt;&lt;/span&gt;&lt;/div&gt;&lt;/div&gt;&lt;/blockquote&gt;&lt;div style=&quot;font-size: 16px;&quot;&gt;&lt;div style=&quot;font-size: 16px;&quot;&gt;&lt;span style=&quot;font-size: 16px;&quot;&gt;&amp;lt;/html&amp;gt;&lt;/span&gt;&lt;/div&gt;&lt;/div&gt;" style="rounded=0;whiteSpace=wrap;html=1;align=left;fontSize=16;" vertex="1" parent="1">
          <mxGeometry x="47" y="530" width="338" height="410" as="geometry" />
        </mxCell>
        <mxCell id="5o4x5xTKd4VsP92acShY-34" style="edgeStyle=orthogonalEdgeStyle;rounded=0;orthogonalLoop=1;jettySize=auto;html=1;exitX=0.5;exitY=1;exitDx=0;exitDy=0;entryX=0;entryY=0.5;entryDx=0;entryDy=0;" edge="1" parent="1" source="5o4x5xTKd4VsP92acShY-28" target="5o4x5xTKd4VsP92acShY-32">
          <mxGeometry relative="1" as="geometry" />
        </mxCell>
        <mxCell id="5o4x5xTKd4VsP92acShY-38" style="edgeStyle=orthogonalEdgeStyle;rounded=0;orthogonalLoop=1;jettySize=auto;html=1;entryX=0;entryY=0.5;entryDx=0;entryDy=0;" edge="1" parent="1" source="5o4x5xTKd4VsP92acShY-28" target="5o4x5xTKd4VsP92acShY-37">
          <mxGeometry relative="1" as="geometry" />
        </mxCell>
        <mxCell id="5o4x5xTKd4VsP92acShY-28" value="&amp;lt;html&amp;gt;" style="rounded=0;whiteSpace=wrap;html=1;fontSize=16;" vertex="1" parent="1">
          <mxGeometry x="405" y="530" width="80" height="40" as="geometry" />
        </mxCell>
        <mxCell id="5o4x5xTKd4VsP92acShY-35" style="edgeStyle=orthogonalEdgeStyle;rounded=0;orthogonalLoop=1;jettySize=auto;html=1;exitX=0.5;exitY=1;exitDx=0;exitDy=0;entryX=0;entryY=0.5;entryDx=0;entryDy=0;" edge="1" parent="1" source="5o4x5xTKd4VsP92acShY-32" target="5o4x5xTKd4VsP92acShY-33">
          <mxGeometry relative="1" as="geometry" />
        </mxCell>
        <mxCell id="5o4x5xTKd4VsP92acShY-32" value="&amp;lt;head&amp;gt;" style="rounded=0;whiteSpace=wrap;html=1;fontSize=16;" vertex="1" parent="1">
          <mxGeometry x="475" y="580" width="80" height="40" as="geometry" />
        </mxCell>
        <mxCell id="5o4x5xTKd4VsP92acShY-51" style="edgeStyle=orthogonalEdgeStyle;rounded=0;orthogonalLoop=1;jettySize=auto;html=1;exitX=0.5;exitY=1;exitDx=0;exitDy=0;entryX=0;entryY=0.5;entryDx=0;entryDy=0;" edge="1" parent="1" source="5o4x5xTKd4VsP92acShY-33" target="5o4x5xTKd4VsP92acShY-50">
          <mxGeometry relative="1" as="geometry" />
        </mxCell>
        <mxCell id="5o4x5xTKd4VsP92acShY-33" value="&amp;lt;title&amp;gt;" style="rounded=0;whiteSpace=wrap;html=1;fontSize=16;" vertex="1" parent="1">
          <mxGeometry x="555" y="630" width="80" height="40" as="geometry" />
        </mxCell>
        <mxCell id="5o4x5xTKd4VsP92acShY-40" style="edgeStyle=orthogonalEdgeStyle;rounded=0;orthogonalLoop=1;jettySize=auto;html=1;entryX=0;entryY=0.5;entryDx=0;entryDy=0;" edge="1" parent="1" source="5o4x5xTKd4VsP92acShY-37" target="5o4x5xTKd4VsP92acShY-39">
          <mxGeometry relative="1" as="geometry" />
        </mxCell>
        <mxCell id="5o4x5xTKd4VsP92acShY-60" style="edgeStyle=orthogonalEdgeStyle;rounded=0;orthogonalLoop=1;jettySize=auto;html=1;entryX=0.5;entryY=0;entryDx=0;entryDy=0;" edge="1" parent="1" source="5o4x5xTKd4VsP92acShY-37" target="5o4x5xTKd4VsP92acShY-59">
          <mxGeometry relative="1" as="geometry" />
        </mxCell>
        <mxCell id="5o4x5xTKd4VsP92acShY-37" value="&amp;lt;body&amp;gt;" style="rounded=0;whiteSpace=wrap;html=1;fontSize=16;" vertex="1" parent="1">
          <mxGeometry x="475" y="700" width="80" height="40" as="geometry" />
        </mxCell>
        <mxCell id="5o4x5xTKd4VsP92acShY-42" style="edgeStyle=orthogonalEdgeStyle;rounded=0;orthogonalLoop=1;jettySize=auto;html=1;entryX=0;entryY=0.5;entryDx=0;entryDy=0;" edge="1" parent="1" source="5o4x5xTKd4VsP92acShY-39" target="5o4x5xTKd4VsP92acShY-41">
          <mxGeometry relative="1" as="geometry" />
        </mxCell>
        <mxCell id="5o4x5xTKd4VsP92acShY-66" style="edgeStyle=orthogonalEdgeStyle;rounded=0;orthogonalLoop=1;jettySize=auto;html=1;entryX=0;entryY=0.5;entryDx=0;entryDy=0;" edge="1" parent="1" source="5o4x5xTKd4VsP92acShY-39" target="5o4x5xTKd4VsP92acShY-64">
          <mxGeometry relative="1" as="geometry" />
        </mxCell>
        <mxCell id="5o4x5xTKd4VsP92acShY-39" value="&amp;lt;li&amp;gt;" style="rounded=0;whiteSpace=wrap;html=1;fontSize=16;" vertex="1" parent="1">
          <mxGeometry x="555" y="750" width="80" height="40" as="geometry" />
        </mxCell>
        <mxCell id="5o4x5xTKd4VsP92acShY-56" style="edgeStyle=orthogonalEdgeStyle;rounded=0;orthogonalLoop=1;jettySize=auto;html=1;entryX=0;entryY=0.5;entryDx=0;entryDy=0;" edge="1" parent="1" source="5o4x5xTKd4VsP92acShY-41" target="5o4x5xTKd4VsP92acShY-55">
          <mxGeometry relative="1" as="geometry" />
        </mxCell>
        <mxCell id="5o4x5xTKd4VsP92acShY-41" value="&amp;lt;span&amp;gt;" style="rounded=0;whiteSpace=wrap;html=1;fontSize=16;" vertex="1" parent="1">
          <mxGeometry x="625" y="800" width="80" height="40" as="geometry" />
        </mxCell>
        <mxCell id="5o4x5xTKd4VsP92acShY-45" style="edgeStyle=orthogonalEdgeStyle;rounded=0;orthogonalLoop=1;jettySize=auto;html=1;exitX=0.5;exitY=1;exitDx=0;exitDy=0;" edge="1" parent="1">
          <mxGeometry relative="1" as="geometry">
            <mxPoint x="665" y="720" as="sourcePoint" />
            <mxPoint x="665" y="720" as="targetPoint" />
          </mxGeometry>
        </mxCell>
        <mxCell id="5o4x5xTKd4VsP92acShY-50" value="iPhone 13" style="rounded=1;whiteSpace=wrap;html=1;fontSize=16;" vertex="1" parent="1">
          <mxGeometry x="625" y="680" width="80" height="40" as="geometry" />
        </mxCell>
        <mxCell id="5o4x5xTKd4VsP92acShY-55" value="Price:" style="rounded=1;whiteSpace=wrap;html=1;fontSize=16;" vertex="1" parent="1">
          <mxGeometry x="685" y="850" width="80" height="40" as="geometry" />
        </mxCell>
        <mxCell id="5o4x5xTKd4VsP92acShY-59" value="&lt;font style=&quot;font-size: 18px;&quot;&gt;...&lt;/font&gt;" style="text;html=1;strokeColor=none;fillColor=none;align=center;verticalAlign=middle;whiteSpace=wrap;rounded=0;" vertex="1" parent="1">
          <mxGeometry x="485" y="810" width="60" height="30" as="geometry" />
        </mxCell>
        <mxCell id="5o4x5xTKd4VsP92acShY-62" value="&lt;font style=&quot;font-size: 18px;&quot;&gt;“Price:” 的XPath: /html/body/li[1]/span[1]&lt;br&gt;“$ 799” 的XPath: /html/body/li[1]/span[2]&lt;br&gt;&lt;/font&gt;" style="text;html=1;strokeColor=none;fillColor=none;align=center;verticalAlign=middle;whiteSpace=wrap;rounded=0;" vertex="1" parent="1">
          <mxGeometry x="47" y="960" width="561" height="80" as="geometry" />
        </mxCell>
        <mxCell id="5o4x5xTKd4VsP92acShY-63" style="edgeStyle=orthogonalEdgeStyle;rounded=0;orthogonalLoop=1;jettySize=auto;html=1;entryX=0;entryY=0.5;entryDx=0;entryDy=0;" edge="1" parent="1" source="5o4x5xTKd4VsP92acShY-64" target="5o4x5xTKd4VsP92acShY-65">
          <mxGeometry relative="1" as="geometry" />
        </mxCell>
        <mxCell id="5o4x5xTKd4VsP92acShY-64" value="&amp;lt;span&amp;gt;" style="rounded=0;whiteSpace=wrap;html=1;fontSize=16;" vertex="1" parent="1">
          <mxGeometry x="625" y="900" width="80" height="40" as="geometry" />
        </mxCell>
        <mxCell id="5o4x5xTKd4VsP92acShY-65" value="$ 799" style="rounded=1;whiteSpace=wrap;html=1;fontSize=16;" vertex="1" parent="1">
          <mxGeometry x="685" y="950" width="80" height="40" as="geometry" />
        </mxCell>
        <mxCell id="5o4x5xTKd4VsP92acShY-67" value="&lt;font style=&quot;font-size: 18px;&quot;&gt;HTML&lt;/font&gt;" style="text;html=1;strokeColor=none;fillColor=none;align=center;verticalAlign=middle;whiteSpace=wrap;rounded=0;" vertex="1" parent="1">
          <mxGeometry x="165" y="490" width="60" height="30" as="geometry" />
        </mxCell>
        <mxCell id="5o4x5xTKd4VsP92acShY-68" value="&lt;font style=&quot;font-size: 18px;&quot;&gt;DOM树&lt;/font&gt;" style="text;html=1;strokeColor=none;fillColor=none;align=center;verticalAlign=middle;whiteSpace=wrap;rounded=0;" vertex="1" parent="1">
          <mxGeometry x="545" y="490" width="84" height="30" as="geometry" />
        </mxCell>
      </root>
    </mxGraphModel>
  </diagram>
</mxfile>
